solid ascii
  facet normal -1.000000e+00 -0.000000e+00 -0.000000e+00
    outer loop
      vertex   -1.712606e+02 1.412606e+02 8.313030e+01
      vertex   -1.712606e+02 1.412606e+02 5.000000e+01
      vertex   -1.712606e+02 1.050000e+02 8.313030e+01
    endloop
  endfacet
  facet normal -1.000000e+00 -0.000000e+00 -0.000000e+00
    outer loop
      vertex   -1.712606e+02 1.050000e+02 8.313030e+01
      vertex   -1.712606e+02 1.412606e+02 5.000000e+01
      vertex   -1.712606e+02 1.050000e+02 5.000000e+01
    endloop
  endfacet
  facet normal -1.000000e+00 -0.000000e+00 -0.000000e+00
    outer loop
      vertex   -1.712606e+02 6.873940e+01 8.313030e+01
      vertex   -1.712606e+02 1.050000e+02 5.000000e+01
      vertex   -1.712606e+02 6.873940e+01 5.000000e+01
    endloop
  endfacet
  facet normal -1.000000e+00 0.000000e+00 0.000000e+00
    outer loop
      vertex   -1.712606e+02 6.873940e+01 8.313030e+01
      vertex   -1.712606e+02 1.050000e+02 8.313030e+01
      vertex   -1.712606e+02 1.050000e+02 5.000000e+01
    endloop
  endfacet
  facet normal 0.000000e+00 -1.000000e+00 0.000000e+00
    outer loop
      vertex   -1.712606e+02 6.873940e+01 8.313030e+01
      vertex   -1.712606e+02 6.873940e+01 5.000000e+01
      vertex   -1.350000e+02 6.873940e+01 8.313030e+01
    endloop
  endfacet
  facet normal -3.919090e-16 -1.000000e+00 4.289383e-16
    outer loop
      vertex   -1.350000e+02 6.873940e+01 8.313030e+01
      vertex   -1.712606e+02 6.873940e+01 5.000000e+01
      vertex   -1.350000e+02 6.873940e+01 5.000000e+01
    endloop
  endfacet
  facet normal 3.919090e-16 -1.000000e+00 0.000000e+00
    outer loop
      vertex   -9.873940e+01 6.873940e+01 8.313030e+01
      vertex   -1.350000e+02 6.873940e+01 5.000000e+01
      vertex   -9.873940e+01 6.873940e+01 5.000000e+01
    endloop
  endfacet
  facet normal 0.000000e+00 -1.000000e+00 4.289383e-16
    outer loop
      vertex   -9.873940e+01 6.873940e+01 8.313030e+01
      vertex   -1.350000e+02 6.873940e+01 8.313030e+01
      vertex   -1.350000e+02 6.873940e+01 5.000000e+01
    endloop
  endfacet
  facet normal 0.000000e+00 -0.000000e+00 -1.000000e+00
    outer loop
      vertex   -1.495042e+02 1.195042e+02 4.686970e+01
      vertex   -1.495042e+02 9.049576e+01 4.686970e+01
      vertex   -1.550000e+02 8.500000e+01 4.686970e+01
    endloop
  endfacet
  facet normal 0.000000e+00 -0.000000e+00 -1.000000e+00
    outer loop
      vertex   -1.550000e+02 1.250000e+02 4.686970e+01
      vertex   -1.495042e+02 1.195042e+02 4.686970e+01
      vertex   -1.550000e+02 8.500000e+01 4.686970e+01
    endloop
  endfacet
  facet normal 0.000000e+00 -0.000000e+00 -1.000000e+00
    outer loop
      vertex   -1.550000e+02 1.250000e+02 4.686970e+01
      vertex   -1.150000e+02 1.250000e+02 4.686970e+01
      vertex   -1.495042e+02 1.195042e+02 4.686970e+01
    endloop
  endfacet
  facet normal 0.000000e+00 -0.000000e+00 -1.000000e+00
    outer loop
      vertex   -1.495042e+02 1.195042e+02 4.686970e+01
      vertex   -1.150000e+02 1.250000e+02 4.686970e+01
      vertex   -1.204958e+02 1.195042e+02 4.686970e+01
    endloop
  endfacet
  facet normal 0.000000e+00 0.000000e+00 -1.000000e+00
    outer loop
      vertex   -1.204958e+02 1.195042e+02 4.686970e+01
      vertex   -1.150000e+02 1.250000e+02 4.686970e+01
      vertex   -1.150000e+02 8.500000e+01 4.686970e+01
    endloop
  endfacet
  facet normal -0.000000e+00 -0.000000e+00 -1.000000e+00
    outer loop
      vertex   -1.204958e+02 9.049576e+01 4.686970e+01
      vertex   -1.150000e+02 8.500000e+01 4.686970e+01
      vertex   -1.550000e+02 8.500000e+01 4.686970e+01
    endloop
  endfacet
  facet normal 0.000000e+00 -0.000000e+00 -1.000000e+00
    outer loop
      vertex   -1.495042e+02 9.049576e+01 4.686970e+01
      vertex   -1.204958e+02 9.049576e+01 4.686970e+01
      vertex   -1.550000e+02 8.500000e+01 4.686970e+01
    endloop
  endfacet
  facet normal 0.000000e+00 0.000000e+00 -1.000000e+00
    outer loop
      vertex   -1.204958e+02 9.049576e+01 4.686970e+01
      vertex   -1.204958e+02 1.195042e+02 4.686970e+01
      vertex   -1.150000e+02 8.500000e+01 4.686970e+01
    endloop
  endfacet
  facet normal 1.000000e+00 -0.000000e+00 0.000000e+00
    outer loop
      vertex   -1.495042e+02 9.049576e+01 8.313030e+01
      vertex   -1.495042e+02 9.049576e+01 4.686970e+01
      vertex   -1.495042e+02 1.195042e+02 8.313030e+01
    endloop
  endfacet
  facet normal 1.000000e+00 -0.000000e+00 0.000000e+00
    outer loop
      vertex   -1.495042e+02 1.195042e+02 8.313030e+01
      vertex   -1.495042e+02 9.049576e+01 4.686970e+01
      vertex   -1.495042e+02 1.195042e+02 4.686970e+01
    endloop
  endfacet
  facet normal 0.000000e+00 -1.000000e+00 -3.919090e-16
    outer loop
      vertex   -1.495042e+02 1.195042e+02 8.313030e+01
      vertex   -1.495042e+02 1.195042e+02 4.686970e+01
      vertex   -1.204958e+02 1.195042e+02 8.313030e+01
    endloop
  endfacet
  facet normal -4.898862e-16 -1.000000e+00 -1.919908e-31
    outer loop
      vertex   -1.204958e+02 1.195042e+02 8.313030e+01
      vertex   -1.495042e+02 1.195042e+02 4.686970e+01
      vertex   -1.204958e+02 1.195042e+02 4.686970e+01
    endloop
  endfacet
  facet normal -0.000000e+00 1.000000e+00 0.000000e+00
    outer loop
      vertex   -1.495042e+02 9.049576e+01 4.686970e+01
      vertex   -1.495042e+02 9.049576e+01 8.313030e+01
      vertex   -1.204958e+02 9.049576e+01 4.686970e+01
    endloop
  endfacet
  facet normal 0.000000e+00 1.000000e+00 -0.000000e+00
    outer loop
      vertex   -1.204958e+02 9.049576e+01 4.686970e+01
      vertex   -1.495042e+02 9.049576e+01 8.313030e+01
      vertex   -1.204958e+02 9.049576e+01 8.313030e+01
    endloop
  endfacet
  facet normal -1.000000e+00 0.000000e+00 -3.919090e-16
    outer loop
      vertex   -1.204958e+02 9.049576e+01 4.686970e+01
      vertex   -1.204958e+02 9.049576e+01 8.313030e+01
      vertex   -1.204958e+02 1.195042e+02 4.686970e+01
    endloop
  endfacet
  facet normal -1.000000e+00 0.000000e+00 -3.919090e-16
    outer loop
      vertex   -1.204958e+02 1.195042e+02 4.686970e+01
      vertex   -1.204958e+02 9.049576e+01 8.313030e+01
      vertex   -1.204958e+02 1.195042e+02 8.313030e+01
    endloop
  endfacet
  facet normal -0.000000e+00 0.000000e+00 1.000000e+00
    outer loop
      vertex   -1.495042e+02 9.049576e+01 8.313030e+01
      vertex   -1.350000e+02 6.873940e+01 8.313030e+01
      vertex   -1.204958e+02 9.049576e+01 8.313030e+01
    endloop
  endfacet
  facet normal -0.000000e+00 0.000000e+00 1.000000e+00
    outer loop
      vertex   -1.495042e+02 9.049576e+01 8.313030e+01
      vertex   -1.712606e+02 6.873940e+01 8.313030e+01
      vertex   -1.350000e+02 6.873940e+01 8.313030e+01
    endloop
  endfacet
  facet normal 0.000000e+00 0.000000e+00 1.000000e+00
    outer loop
      vertex   -1.495042e+02 9.049576e+01 8.313030e+01
      vertex   -1.712606e+02 1.050000e+02 8.313030e+01
      vertex   -1.712606e+02 6.873940e+01 8.313030e+01
    endloop
  endfacet
  facet normal 0.000000e+00 -0.000000e+00 1.000000e+00
    outer loop
      vertex   -1.495042e+02 9.049576e+01 8.313030e+01
      vertex   -1.495042e+02 1.195042e+02 8.313030e+01
      vertex   -1.712606e+02 1.050000e+02 8.313030e+01
    endloop
  endfacet
  facet normal 0.000000e+00 -0.000000e+00 1.000000e+00
    outer loop
      vertex   -1.712606e+02 1.050000e+02 8.313030e+01
      vertex   -1.495042e+02 1.195042e+02 8.313030e+01
      vertex   -1.712606e+02 1.412606e+02 8.313030e+01
    endloop
  endfacet
  facet normal -0.000000e+00 0.000000e+00 1.000000e+00
    outer loop
      vertex   -1.712606e+02 1.412606e+02 8.313030e+01
      vertex   -1.495042e+02 1.195042e+02 8.313030e+01
      vertex   -1.350000e+02 1.412606e+02 8.313030e+01
    endloop
  endfacet
  facet normal -0.000000e+00 0.000000e+00 1.000000e+00
    outer loop
      vertex   -1.350000e+02 1.412606e+02 8.313030e+01
      vertex   -1.495042e+02 1.195042e+02 8.313030e+01
      vertex   -1.204958e+02 1.195042e+02 8.313030e+01
    endloop
  endfacet
  facet normal 0.000000e+00 0.000000e+00 1.000000e+00
    outer loop
      vertex   -9.873940e+01 1.412606e+02 8.313030e+01
      vertex   -1.204958e+02 1.195042e+02 8.313030e+01
      vertex   -9.873940e+01 1.050000e+02 8.313030e+01
    endloop
  endfacet
  facet normal 0.000000e+00 0.000000e+00 1.000000e+00
    outer loop
      vertex   -9.873940e+01 1.412606e+02 8.313030e+01
      vertex   -1.350000e+02 1.412606e+02 8.313030e+01
      vertex   -1.204958e+02 1.195042e+02 8.313030e+01
    endloop
  endfacet
  facet normal -0.000000e+00 0.000000e+00 1.000000e+00
    outer loop
      vertex   -1.204958e+02 1.195042e+02 8.313030e+01
      vertex   -1.204958e+02 9.049576e+01 8.313030e+01
      vertex   -9.873940e+01 1.050000e+02 8.313030e+01
    endloop
  endfacet
  facet normal 0.000000e+00 0.000000e+00 1.000000e+00
    outer loop
      vertex   -9.873940e+01 1.050000e+02 8.313030e+01
      vertex   -1.204958e+02 9.049576e+01 8.313030e+01
      vertex   -9.873940e+01 6.873940e+01 8.313030e+01
    endloop
  endfacet
  facet normal 0.000000e+00 0.000000e+00 1.000000e+00
    outer loop
      vertex   -9.873940e+01 6.873940e+01 8.313030e+01
      vertex   -1.204958e+02 9.049576e+01 8.313030e+01
      vertex   -1.350000e+02 6.873940e+01 8.313030e+01
    endloop
  endfacet
  facet normal 0.000000e+00 1.000000e+00 0.000000e+00
    outer loop
      vertex   -9.873940e+01 1.412606e+02 8.313030e+01
      vertex   -9.873940e+01 1.412606e+02 5.000000e+01
      vertex   -1.350000e+02 1.412606e+02 8.313030e+01
    endloop
  endfacet
  facet normal 0.000000e+00 1.000000e+00 0.000000e+00
    outer loop
      vertex   -1.350000e+02 1.412606e+02 8.313030e+01
      vertex   -9.873940e+01 1.412606e+02 5.000000e+01
      vertex   -1.350000e+02 1.412606e+02 5.000000e+01
    endloop
  endfacet
  facet normal 0.000000e+00 1.000000e+00 0.000000e+00
    outer loop
      vertex   -1.712606e+02 1.412606e+02 8.313030e+01
      vertex   -1.350000e+02 1.412606e+02 5.000000e+01
      vertex   -1.712606e+02 1.412606e+02 5.000000e+01
    endloop
  endfacet
  facet normal -0.000000e+00 1.000000e+00 0.000000e+00
    outer loop
      vertex   -1.712606e+02 1.412606e+02 8.313030e+01
      vertex   -1.350000e+02 1.412606e+02 8.313030e+01
      vertex   -1.350000e+02 1.412606e+02 5.000000e+01
    endloop
  endfacet
  facet normal 1.000000e+00 -0.000000e+00 0.000000e+00
    outer loop
      vertex   -9.873940e+01 6.873940e+01 8.313030e+01
      vertex   -9.873940e+01 6.873940e+01 5.000000e+01
      vertex   -9.873940e+01 1.050000e+02 8.313030e+01
    endloop
  endfacet
  facet normal 1.000000e+00 -3.919090e-16 4.289383e-16
    outer loop
      vertex   -9.873940e+01 1.050000e+02 8.313030e+01
      vertex   -9.873940e+01 6.873940e+01 5.000000e+01
      vertex   -9.873940e+01 1.050000e+02 5.000000e+01
    endloop
  endfacet
  facet normal 1.000000e+00 3.919090e-16 0.000000e+00
    outer loop
      vertex   -9.873940e+01 1.412606e+02 8.313030e+01
      vertex   -9.873940e+01 1.050000e+02 5.000000e+01
      vertex   -9.873940e+01 1.412606e+02 5.000000e+01
    endloop
  endfacet
  facet normal 1.000000e+00 0.000000e+00 4.289383e-16
    outer loop
      vertex   -9.873940e+01 1.412606e+02 8.313030e+01
      vertex   -9.873940e+01 1.050000e+02 8.313030e+01
      vertex   -9.873940e+01 1.050000e+02 5.000000e+01
    endloop
  endfacet
  facet normal 0.000000e+00 -1.000000e+00 0.000000e+00
    outer loop
      vertex   -1.550000e+02 1.250000e+02 4.686970e+01
      vertex   -1.550000e+02 1.250000e+02 3.000000e+01
      vertex   -1.150000e+02 1.250000e+02 4.686970e+01
    endloop
  endfacet
  facet normal 0.000000e+00 -1.000000e+00 -0.000000e+00
    outer loop
      vertex   -1.150000e+02 1.250000e+02 4.686970e+01
      vertex   -1.550000e+02 1.250000e+02 3.000000e+01
      vertex   -1.150000e+02 1.250000e+02 3.000000e+01
    endloop
  endfacet
  facet normal 1.000000e+00 -0.000000e+00 0.000000e+00
    outer loop
      vertex   -1.550000e+02 8.500000e+01 4.686970e+01
      vertex   -1.550000e+02 8.500000e+01 3.000000e+01
      vertex   -1.550000e+02 1.250000e+02 4.686970e+01
    endloop
  endfacet
  facet normal 1.000000e+00 -0.000000e+00 0.000000e+00
    outer loop
      vertex   -1.550000e+02 1.250000e+02 4.686970e+01
      vertex   -1.550000e+02 8.500000e+01 3.000000e+01
      vertex   -1.550000e+02 1.250000e+02 3.000000e+01
    endloop
  endfacet
  facet normal 0.000000e+00 0.000000e+00 1.000000e+00
    outer loop
      vertex   -1.150000e+02 1.250000e+02 3.000000e+01
      vertex   -1.550000e+02 1.250000e+02 3.000000e+01
      vertex   -1.150000e+02 8.500000e+01 3.000000e+01
    endloop
  endfacet
  facet normal 0.000000e+00 0.000000e+00 1.000000e+00
    outer loop
      vertex   -1.150000e+02 8.500000e+01 3.000000e+01
      vertex   -1.550000e+02 1.250000e+02 3.000000e+01
      vertex   -1.550000e+02 8.500000e+01 3.000000e+01
    endloop
  endfacet
  facet normal 0.000000e+00 1.000000e+00 0.000000e+00
    outer loop
      vertex   -1.150000e+02 8.500000e+01 4.686970e+01
      vertex   -1.150000e+02 8.500000e+01 3.000000e+01
      vertex   -1.550000e+02 8.500000e+01 4.686970e+01
    endloop
  endfacet
  facet normal 0.000000e+00 1.000000e+00 0.000000e+00
    outer loop
      vertex   -1.550000e+02 8.500000e+01 4.686970e+01
      vertex   -1.150000e+02 8.500000e+01 3.000000e+01
      vertex   -1.550000e+02 8.500000e+01 3.000000e+01
    endloop
  endfacet
  facet normal -1.000000e+00 -0.000000e+00 -0.000000e+00
    outer loop
      vertex   -1.150000e+02 1.250000e+02 4.686970e+01
      vertex   -1.150000e+02 1.250000e+02 3.000000e+01
      vertex   -1.150000e+02 8.500000e+01 4.686970e+01
    endloop
  endfacet
  facet normal -1.000000e+00 -0.000000e+00 -0.000000e+00
    outer loop
      vertex   -1.150000e+02 8.500000e+01 4.686970e+01
      vertex   -1.150000e+02 1.250000e+02 3.000000e+01
      vertex   -1.150000e+02 8.500000e+01 3.000000e+01
    endloop
  endfacet
  facet normal -0.000000e+00 0.000000e+00 1.000000e+00
    outer loop
      vertex   -1.350000e+02 6.873940e+01 5.000000e+01
      vertex   -1.350000e+02 5.500000e+01 5.000000e+01
      vertex   -9.873940e+01 6.873940e+01 5.000000e+01
    endloop
  endfacet
  facet normal 0.000000e+00 0.000000e+00 1.000000e+00
    outer loop
      vertex   -1.350000e+02 6.873940e+01 5.000000e+01
      vertex   -1.712606e+02 6.873940e+01 5.000000e+01
      vertex   -1.350000e+02 5.500000e+01 5.000000e+01
    endloop
  endfacet
  facet normal 0.000000e+00 0.000000e+00 1.000000e+00
    outer loop
      vertex   -1.350000e+02 5.500000e+01 5.000000e+01
      vertex   -1.712606e+02 6.873940e+01 5.000000e+01
      vertex   -1.850000e+02 5.500000e+01 5.000000e+01
    endloop
  endfacet
  facet normal 0.000000e+00 -0.000000e+00 1.000000e+00
    outer loop
      vertex   -1.850000e+02 5.500000e+01 5.000000e+01
      vertex   -1.712606e+02 6.873940e+01 5.000000e+01
      vertex   -1.850000e+02 1.050000e+02 5.000000e+01
    endloop
  endfacet
  facet normal -0.000000e+00 0.000000e+00 1.000000e+00
    outer loop
      vertex   -1.850000e+02 1.050000e+02 5.000000e+01
      vertex   -1.712606e+02 6.873940e+01 5.000000e+01
      vertex   -1.712606e+02 1.050000e+02 5.000000e+01
    endloop
  endfacet
  facet normal -0.000000e+00 0.000000e+00 1.000000e+00
    outer loop
      vertex   -1.712606e+02 1.412606e+02 5.000000e+01
      vertex   -1.850000e+02 1.050000e+02 5.000000e+01
      vertex   -1.712606e+02 1.050000e+02 5.000000e+01
    endloop
  endfacet
  facet normal 0.000000e+00 0.000000e+00 1.000000e+00
    outer loop
      vertex   -1.712606e+02 1.412606e+02 5.000000e+01
      vertex   -1.850000e+02 1.550000e+02 5.000000e+01
      vertex   -1.850000e+02 1.050000e+02 5.000000e+01
    endloop
  endfacet
  facet normal 0.000000e+00 -0.000000e+00 1.000000e+00
    outer loop
      vertex   -1.712606e+02 1.412606e+02 5.000000e+01
      vertex   -1.350000e+02 1.550000e+02 5.000000e+01
      vertex   -1.850000e+02 1.550000e+02 5.000000e+01
    endloop
  endfacet
  facet normal 0.000000e+00 0.000000e+00 1.000000e+00
    outer loop
      vertex   -1.712606e+02 1.412606e+02 5.000000e+01
      vertex   -1.350000e+02 1.412606e+02 5.000000e+01
      vertex   -1.350000e+02 1.550000e+02 5.000000e+01
    endloop
  endfacet
  facet normal -0.000000e+00 0.000000e+00 1.000000e+00
    outer loop
      vertex   -1.350000e+02 1.550000e+02 5.000000e+01
      vertex   -1.350000e+02 1.412606e+02 5.000000e+01
      vertex   -9.873940e+01 1.412606e+02 5.000000e+01
    endloop
  endfacet
  facet normal 0.000000e+00 0.000000e+00 1.000000e+00
    outer loop
      vertex   -8.500000e+01 1.550000e+02 5.000000e+01
      vertex   -9.873940e+01 1.412606e+02 5.000000e+01
      vertex   -8.500000e+01 1.050000e+02 5.000000e+01
    endloop
  endfacet
  facet normal 0.000000e+00 0.000000e+00 1.000000e+00
    outer loop
      vertex   -8.500000e+01 1.550000e+02 5.000000e+01
      vertex   -1.350000e+02 1.550000e+02 5.000000e+01
      vertex   -9.873940e+01 1.412606e+02 5.000000e+01
    endloop
  endfacet
  facet normal -0.000000e+00 0.000000e+00 1.000000e+00
    outer loop
      vertex   -9.873940e+01 1.412606e+02 5.000000e+01
      vertex   -9.873940e+01 1.050000e+02 5.000000e+01
      vertex   -8.500000e+01 1.050000e+02 5.000000e+01
    endloop
  endfacet
  facet normal 0.000000e+00 0.000000e+00 1.000000e+00
    outer loop
      vertex   -8.500000e+01 1.050000e+02 5.000000e+01
      vertex   -9.873940e+01 1.050000e+02 5.000000e+01
      vertex   -9.873940e+01 6.873940e+01 5.000000e+01
    endloop
  endfacet
  facet normal 0.000000e+00 0.000000e+00 1.000000e+00
    outer loop
      vertex   -8.500000e+01 5.500000e+01 5.000000e+01
      vertex   -9.873940e+01 6.873940e+01 5.000000e+01
      vertex   -1.350000e+02 5.500000e+01 5.000000e+01
    endloop
  endfacet
  facet normal 0.000000e+00 -0.000000e+00 1.000000e+00
    outer loop
      vertex   -8.500000e+01 5.500000e+01 5.000000e+01
      vertex   -8.500000e+01 1.050000e+02 5.000000e+01
      vertex   -9.873940e+01 6.873940e+01 5.000000e+01
    endloop
  endfacet
  facet normal 0.000000e+00 -0.000000e+00 -1.000000e+00
    outer loop
      vertex   -1.350000e+02 1.550000e+02 0.000000e+00
      vertex   -8.500000e+01 1.550000e+02 0.000000e+00
      vertex   -1.350000e+02 1.050000e+02 0.000000e+00
    endloop
  endfacet
  facet normal 0.000000e+00 -0.000000e+00 -1.000000e+00
    outer loop
      vertex   -1.850000e+02 1.050000e+02 0.000000e+00
      vertex   -1.350000e+02 1.050000e+02 0.000000e+00
      vertex   -1.850000e+02 5.500000e+01 0.000000e+00
    endloop
  endfacet
  facet normal 0.000000e+00 0.000000e+00 -1.000000e+00
    outer loop
      vertex   -1.850000e+02 1.050000e+02 0.000000e+00
      vertex   -1.350000e+02 1.550000e+02 0.000000e+00
      vertex   -1.350000e+02 1.050000e+02 0.000000e+00
    endloop
  endfacet
  facet normal 0.000000e+00 0.000000e+00 -1.000000e+00
    outer loop
      vertex   -1.850000e+02 1.050000e+02 0.000000e+00
      vertex   -1.850000e+02 1.550000e+02 0.000000e+00
      vertex   -1.350000e+02 1.550000e+02 0.000000e+00
    endloop
  endfacet
  facet normal 0.000000e+00 0.000000e+00 -1.000000e+00
    outer loop
      vertex   -8.500000e+01 5.500000e+01 0.000000e+00
      vertex   -1.350000e+02 5.500000e+01 0.000000e+00
      vertex   -8.500000e+01 1.050000e+02 0.000000e+00
    endloop
  endfacet
  facet normal -0.000000e+00 0.000000e+00 -1.000000e+00
    outer loop
      vertex   -8.500000e+01 1.050000e+02 0.000000e+00
      vertex   -1.350000e+02 5.500000e+01 0.000000e+00
      vertex   -1.350000e+02 1.050000e+02 0.000000e+00
    endloop
  endfacet
  facet normal -0.000000e+00 -0.000000e+00 -1.000000e+00
    outer loop
      vertex   -8.500000e+01 1.550000e+02 0.000000e+00
      vertex   -8.500000e+01 1.050000e+02 0.000000e+00
      vertex   -1.350000e+02 1.050000e+02 0.000000e+00
    endloop
  endfacet
  facet normal 0.000000e+00 0.000000e+00 -1.000000e+00
    outer loop
      vertex   -1.350000e+02 5.500000e+01 0.000000e+00
      vertex   -1.850000e+02 5.500000e+01 0.000000e+00
      vertex   -1.350000e+02 1.050000e+02 0.000000e+00
    endloop
  endfacet
  facet normal 0.000000e+00 -1.000000e+00 0.000000e+00
    outer loop
      vertex   -1.850000e+02 5.500000e+01 5.000000e+01
      vertex   -1.850000e+02 5.500000e+01 0.000000e+00
      vertex   -1.350000e+02 5.500000e+01 5.000000e+01
    endloop
  endfacet
  facet normal 0.000000e+00 -1.000000e+00 -0.000000e+00
    outer loop
      vertex   -1.350000e+02 5.500000e+01 5.000000e+01
      vertex   -1.850000e+02 5.500000e+01 0.000000e+00
      vertex   -1.350000e+02 5.500000e+01 0.000000e+00
    endloop
  endfacet
  facet normal 0.000000e+00 -1.000000e+00 -0.000000e+00
    outer loop
      vertex   -8.500000e+01 5.500000e+01 5.000000e+01
      vertex   -1.350000e+02 5.500000e+01 0.000000e+00
      vertex   -8.500000e+01 5.500000e+01 0.000000e+00
    endloop
  endfacet
  facet normal -0.000000e+00 -1.000000e+00 -0.000000e+00
    outer loop
      vertex   -8.500000e+01 5.500000e+01 5.000000e+01
      vertex   -1.350000e+02 5.500000e+01 5.000000e+01
      vertex   -1.350000e+02 5.500000e+01 0.000000e+00
    endloop
  endfacet
  facet normal -1.000000e+00 -0.000000e+00 -0.000000e+00
    outer loop
      vertex   -1.850000e+02 1.550000e+02 5.000000e+01
      vertex   -1.850000e+02 1.550000e+02 0.000000e+00
      vertex   -1.850000e+02 1.050000e+02 5.000000e+01
    endloop
  endfacet
  facet normal -1.000000e+00 -0.000000e+00 -0.000000e+00
    outer loop
      vertex   -1.850000e+02 1.050000e+02 5.000000e+01
      vertex   -1.850000e+02 1.550000e+02 0.000000e+00
      vertex   -1.850000e+02 1.050000e+02 0.000000e+00
    endloop
  endfacet
  facet normal -1.000000e+00 -0.000000e+00 -0.000000e+00
    outer loop
      vertex   -1.850000e+02 5.500000e+01 5.000000e+01
      vertex   -1.850000e+02 1.050000e+02 0.000000e+00
      vertex   -1.850000e+02 5.500000e+01 0.000000e+00
    endloop
  endfacet
  facet normal -1.000000e+00 0.000000e+00 0.000000e+00
    outer loop
      vertex   -1.850000e+02 5.500000e+01 5.000000e+01
      vertex   -1.850000e+02 1.050000e+02 5.000000e+01
      vertex   -1.850000e+02 1.050000e+02 0.000000e+00
    endloop
  endfacet
  facet normal 0.000000e+00 1.000000e+00 0.000000e+00
    outer loop
      vertex   -8.500000e+01 1.550000e+02 5.000000e+01
      vertex   -8.500000e+01 1.550000e+02 0.000000e+00
      vertex   -1.350000e+02 1.550000e+02 5.000000e+01
    endloop
  endfacet
  facet normal 0.000000e+00 1.000000e+00 0.000000e+00
    outer loop
      vertex   -1.350000e+02 1.550000e+02 5.000000e+01
      vertex   -8.500000e+01 1.550000e+02 0.000000e+00
      vertex   -1.350000e+02 1.550000e+02 0.000000e+00
    endloop
  endfacet
  facet normal 0.000000e+00 1.000000e+00 0.000000e+00
    outer loop
      vertex   -1.850000e+02 1.550000e+02 5.000000e+01
      vertex   -1.350000e+02 1.550000e+02 0.000000e+00
      vertex   -1.850000e+02 1.550000e+02 0.000000e+00
    endloop
  endfacet
  facet normal -0.000000e+00 1.000000e+00 0.000000e+00
    outer loop
      vertex   -1.850000e+02 1.550000e+02 5.000000e+01
      vertex   -1.350000e+02 1.550000e+02 5.000000e+01
      vertex   -1.350000e+02 1.550000e+02 0.000000e+00
    endloop
  endfacet
  facet normal 1.000000e+00 -0.000000e+00 0.000000e+00
    outer loop
      vertex   -8.500000e+01 5.500000e+01 5.000000e+01
      vertex   -8.500000e+01 5.500000e+01 0.000000e+00
      vertex   -8.500000e+01 1.050000e+02 5.000000e+01
    endloop
  endfacet
  facet normal 1.000000e+00 -0.000000e+00 0.000000e+00
    outer loop
      vertex   -8.500000e+01 1.050000e+02 5.000000e+01
      vertex   -8.500000e+01 5.500000e+01 0.000000e+00
      vertex   -8.500000e+01 1.050000e+02 0.000000e+00
    endloop
  endfacet
  facet normal 1.000000e+00 -0.000000e+00 0.000000e+00
    outer loop
      vertex   -8.500000e+01 1.550000e+02 5.000000e+01
      vertex   -8.500000e+01 1.050000e+02 0.000000e+00
      vertex   -8.500000e+01 1.550000e+02 0.000000e+00
    endloop
  endfacet
  facet normal 1.000000e+00 0.000000e+00 0.000000e+00
    outer loop
      vertex   -8.500000e+01 1.550000e+02 5.000000e+01
      vertex   -8.500000e+01 1.050000e+02 5.000000e+01
      vertex   -8.500000e+01 1.050000e+02 0.000000e+00
    endloop
  endfacet
endsolid
