# Obj file \
#    /Users/pittmab/Perforce/main/Kalpana/src/UI/Common/Resources/Materials/Hu \
#    dTestMesh.obj generated by Autodesk OpenModel V2012 
# Fri Nov 19 10:57:04 2010
# The units used in this file are Centimeters 
# fromNurbs#2
# usemtl UNKNOWN
g Obj_fromNurbs#2
v -0.06932376 -0.01205582 0.07892155
v 0.1161379 -0.01205582 0.07892155
v 0.1161379 0.04830251 0.3347094
v -0.06932376 0.04830251 0.3347094
g
vn 0 -0.9732702 0.2296629
vn 0 -0.9732702 0.2296629
vn 0 -0.9732702 0.2296629
vn 0 -0.9732702 0.2296629
vt 1 0
vt 1 1
vt 0 1
vt 0 0
s 1
f 1/1/1 2/2/2 3/3/3
f 3/3/3 4/4/4 1/1/1
s off
# End of Obj file \
#    /Users/pittmab/Perforce/main/Kalpana/src/UI/Common/Resources/Materials/Hu \
#    dTestMesh.obj
